# xmcd
# Track frame offsets:
# 182
# 14167
# 25430
# 37380
# 50270
# 63157
# 75155
# 89357
# 99892
# 111880
# 122447
# 133195
# 144967
# 156997
# 171492
# 183252
# 198430
# 214492
# 229142
# 244247
# 259760
# 280250
# 300447
# 318552
#
# Disc length: 4499 seconds
# Revision: 1
# Processed by: cddbd v1.4PL0 Copyright (c) Steve Scherf et al.
# Submitted via: VisiTrax 2.9.5.181 - For more info visit www.synapsa.com
#
DISCID=58119118
DTITLE=The Masters Apprentices - Hands Of Time 1965-72
DYEAR=1990
DGENRE=R and B
TTITLE0=Poor Boy
TTITLE1=Undecided
TTITLE2=Buried And Dead
TTITLE3=Wars Or Hands Of Time
TTITLE4=Hot Gully Wind
TTITLE5=But One Day
TTITLE6=Dancing Girl
TTITLE7=Tired Of Just Wandering
TTITLE8=Living In A Child's Dream
TTITLE9=Elevator Driver
TTITLE10=Brigette
TTITLE11=Linda Linda
TTITLE12=Merry Go Round
TTITLE13=A Dog, A Siren And Memories
TTITLE14=5:10 Man
TTITLE15=Think About Tomorrow Today
TTITLE16=Turn Up Your Radio
TTITLE17=I'm Your Satisfier
TTITLE18=Rio De Camero
TTITLE19=New Day
TTITLE20=Because I Love You
TTITLE21=The Future Of Our Nation
TTITLE22=Love Is
TTITLE23=Freedom Seeker
EXTD=
EXTT0=
EXTT1=
EXTT2=
EXTT3=
EXTT4=
EXTT5=
EXTT6=
EXTT7=
EXTT8=
EXTT9=
EXTT10=
EXTT11=
EXTT12=
EXTT13=
EXTT14=
EXTT15=
EXTT16=
EXTT17=
EXTT18=
EXTT19=
EXTT20=
EXTT21=
EXTT22=
EXTT23=
PLAYORDER=
